Coordinates
version=1
nRows=21
nColumns=22
inDegrees=yes

Units are S.I. units (second, meters, Newtons, ...)
If the header above contains a line with 'inDegrees', this indicates whether rotational values are in degrees (yes) or radians (no).

endheader
time	pelvis_tilt	pelvis_list	pelvis_rotation	pelvis_tx	pelvis_ty	pelvis_tz	hip_flexion_r	hip_adduction_r	hip_rotation_r	knee_angle_r	ankle_angle_r	subtalar_angle_r	hip_flexion_l	hip_adduction_l	hip_rotation_l	knee_angle_l	ankle_angle_l	subtalar_angle_l	lumbar_extension	lumbar_bending	lumbar_rotation
      0.01000000	     -0.70121685	     -3.86872058	     -7.91682500	     -1.32355773	      1.02454396	     -0.44247470	      0.88989331	      5.61225580	     -4.89486905	     -9.57953064	      8.71419968	     -3.98507751	      1.28425162	     -2.00204237	     -2.77737519	     -9.98142822	     10.90955324	     -1.82168467	     -8.85228175	      3.52299448	      1.64949079
      0.02000000	     -0.69709080	     -3.87269595	     -7.93821360	     -1.32355689	      1.02454195	     -0.44238714	      0.88531226	      5.61888051	     -4.88754433	     -9.58139748	      8.71894187	     -3.99043814	      1.27604337	     -2.00922060	     -2.78792204	     -9.98268103	     10.91398337	     -1.82463531	     -8.84815057	      3.52313500	      1.61349040
      0.03000000	     -0.69221663	     -3.87706462	     -7.96620395	     -1.32354726	      1.02453692	     -0.44227459	      0.87854157	      5.62717360	     -4.87212711	     -9.58290448	      8.72924163	     -3.99765003	      1.26655165	     -2.01760465	     -2.80665349	     -9.98637263	     10.92286151	     -1.82854160	     -8.84057063	      3.52093183	      1.57532609
      0.04000000	     -0.68712846	     -3.88238415	     -8.00007771	     -1.32352196	      1.02453144	     -0.44214100	      0.87000863	      5.63676387	     -4.84790877	     -9.58434380	      8.74043244	     -4.00650374	      1.25524725	     -2.02811281	     -2.83498048	     -9.99158761	     10.93545400	     -1.83323475	     -8.82890188	      3.51770273	      1.54079980
      0.05000000	     -0.68438414	     -3.88834458	     -8.04538618	     -1.32349570	      1.02452246	     -0.44198475	      0.86242720	      5.64789001	     -4.81603066	     -9.58303428	      8.74905378	     -4.01577934	      1.24349896	     -2.04021550	     -2.87277364	     -9.99449457	     10.95073511	     -1.83813401	     -8.81714868	      3.51608662	      1.50870132
      0.06000000	     -0.68088845	     -3.89948529	     -8.11383254	     -1.32346873	      1.02451651	     -0.44177882	      0.84794697	      5.66703053	     -4.74494761	     -9.57232006	      8.75222898	     -4.03538410	      1.23242251	     -2.06010211	     -2.94525726	    -10.00972871	     10.97618009	     -1.84662580	     -8.80808691	      3.51391633	      1.52295467
      0.07000000	     -0.68054242	     -3.90390963	     -8.15901981	     -1.32341914	      1.02450621	     -0.44161125	      0.84412886	      5.67626632	     -4.72748580	     -9.57542299	      8.75092911	     -4.03882541	      1.21652901	     -2.07035086	     -2.96992962	    -10.00306758	     10.98353318	     -1.84809444	     -8.79069357	      3.51063273	      1.48923434
      0.08000000	     -0.68004998	     -3.91429629	     -8.23572461	     -1.32337627	      1.02449823	     -0.44137718	      0.82919565	      5.69610938	     -4.64638425	     -9.56003689	      8.74868815	     -4.04940002	      1.20322593	     -2.09076022	     -3.04921256	    -10.01251403	     11.00516611	     -1.85394923	     -8.77856505	      3.50690237	      1.50777456
      0.09000000	     -0.68066069	     -3.91827662	     -8.28564650	     -1.32331937	      1.02448722	     -0.44118717	      0.82495135	      5.70606690	     -4.62569415	     -9.56138713	      8.74731619	     -4.05171731	      1.18543510	     -2.10153912	     -3.07884254	    -10.00340375	     11.01350049	     -1.85541844	     -8.76118509	      3.50160699	      1.48118355
      0.10000000	     -0.67910355	     -3.92585337	     -8.37156264	     -1.32328177	      1.02448238	     -0.44092671	      0.80973037	      5.72390440	     -4.53283094	     -9.54657891	      8.74529990	     -4.05893233	      1.16742964	     -2.11952192	     -3.16614606	    -10.00832772	     11.03154994	     -1.86102283	     -8.75398868	      3.49231832	      1.51744997
      0.11000000	     -0.67948061	     -3.92872732	     -8.42214540	     -1.32323174	      1.02447222	     -0.44071876	      0.80468357	      5.73404680	     -4.50798170	     -9.54655979	      8.74481311	     -4.06120676	      1.14918116	     -2.13036895	     -3.19907651	     -9.99812863	     11.03926093	     -1.86239941	     -8.73994059	      3.48293508	      1.49687671
      0.12000000	     -0.67741752	     -3.93239925	     -8.49655764	     -1.32320737	      1.02446845	     -0.44045793	      0.79154442	      5.74864012	     -4.42884002	     -9.53476644	      8.74615476	     -4.06713736	      1.13121263	     -2.14462912	     -3.27317129	     -9.99753665	     11.05318082	     -1.86667078	     -8.73575419	      3.46687529	      1.51935642
      0.13000000	     -0.67734525	     -3.93291743	     -8.53123819	     -1.32319944	      1.02445849	     -0.44027981	      0.78897947	      5.75549629	     -4.43175446	     -9.53232639	      8.74641510	     -4.06730298	      1.12609652	     -2.15155852	     -3.26973903	    -10.00568108	     11.05297248	     -1.86670682	     -8.73223162	      3.45651505	      1.51013931
      0.14000000	     -0.67165754	     -3.93851470	     -8.61975088	     -1.32318921	      1.02446224	     -0.43999747	      0.77316900	      5.77250820	     -4.31749776	     -9.52315620	      8.74326693	     -4.07948704	      1.10057353	     -2.16855787	     -3.37822323	    -10.00067621	     11.07401484	     -1.87281494	     -8.73698872	      3.44339771	      1.55034229
      0.15000000	     -0.67219319	     -3.93925544	     -8.64708672	     -1.32320531	      1.02445347	     -0.43981220	      0.77248472	      5.78121853	     -4.31989411	     -9.52149426	      8.74325159	     -4.07974325	      1.09746101	     -2.17753285	     -3.37569669	    -10.00467409	     11.07412407	     -1.87284220	     -8.73730922	      3.42972487	      1.54014379
      0.16000000	     -0.66266623	     -3.94728111	     -8.71033738	     -1.32322105	      1.02446381	     -0.43955987	      0.75556034	      5.80021258	     -4.23053285	     -9.51526868	      8.73731486	     -4.09561519	      1.07366394	     -2.19657396	     -3.45534540	    -10.00074980	     11.09591449	     -1.87793768	     -8.75300528	      3.41991000	      1.55528690
      0.17000000	     -0.66319249	     -3.94744636	     -8.73222500	     -1.32324499	      1.02445532	     -0.43938367	      0.75569553	      5.80844557	     -4.23241037	     -9.51412632	      8.73711447	     -4.09600194	      1.07148601	     -2.20474004	     -3.45281627	    -10.00355398	     11.09614680	     -1.87797879	     -8.75536175	      3.40770271	      1.54656585
      0.18000000	     -0.65798805	     -3.95101957	     -8.75942255	     -1.32327715	      1.02445397	     -0.43919742	      0.75578224	      5.82041930	     -4.19963495	     -9.52713633	      8.73307816	     -4.10182362	      1.05907594	     -2.21681844	     -3.47310415	     -9.99968724	     11.10708863	     -1.87982123	     -8.76703036	      3.40074789	      1.51974005
      0.19000000	     -0.65948096	     -3.95083437	     -8.77467703	     -1.32331685	      1.02444479	     -0.43902756	      0.75642118	      5.82899222	     -4.19928088	     -9.52299352	      8.73380421	     -4.10266683	      1.05988491	     -2.22558865	     -3.47287458	    -10.00064148	     11.10841553	     -1.88012540	     -8.77394056	      3.38756100	      1.51533968
      0.20000000	     -0.64168704	     -3.96222575	     -8.81380033	     -1.32335443	      1.02446122	     -0.43881450	      0.72850489	      5.85041902	     -4.12181397	     -9.51155160	      8.73668294	     -4.13169791	      1.03820953	     -2.24672760	     -3.53131779	    -10.01011425	     11.14173227	     -1.88621047	     -8.80618586	      3.38316021	      1.53144279
      0.21000000	     -0.64338141	     -3.96151237	     -8.82273782	     -1.32340343	      1.02445156	     -0.43866065	      0.73172955	      5.85812432	     -4.12263125	     -9.51050909	      8.73648787	     -4.13238828	      1.03955559	     -2.25466306	     -3.53023709	    -10.00813416	     11.14176621	     -1.88616965	     -8.81469184	      3.37160391	      1.52512686
